<svg width="166" height="52" viewBox="0 0 166 52" fill="none" xmlns="http://www.w3.org/2000/svg">
<g filter="url(#filter0_d_2_13)">
<path d="M4.792 31.552C4.792 29.888 5.152 28.408 5.872 27.112C6.592 25.8 7.592 24.784 8.872 24.064C10.168 23.328 11.632 22.96 13.264 22.96C15.264 22.96 16.976 23.488 18.4 24.544C19.824 25.6 20.776 27.04 21.256 28.864H16.744C16.408 28.16 15.928 27.624 15.304 27.256C14.696 26.888 14 26.704 13.216 26.704C11.952 26.704 10.928 27.144 10.144 28.024C9.36 28.904 8.968 30.08 8.968 31.552C8.968 33.024 9.36 34.2 10.144 35.08C10.928 35.96 11.952 36.4 13.216 36.4C14 36.4 14.696 36.216 15.304 35.848C15.928 35.48 16.408 34.944 16.744 34.24H21.256C20.776 36.064 19.824 37.504 18.4 38.56C16.976 39.6 15.264 40.12 13.264 40.12C11.632 40.12 10.168 39.76 8.872 39.04C7.592 38.304 6.592 37.288 5.872 35.992C5.152 34.696 4.792 33.216 4.792 31.552ZM36.9933 26.608V40H32.8893V38.176C32.4733 38.768 31.9053 39.248 31.1853 39.616C30.4813 39.968 29.6973 40.144 28.8333 40.144C27.8093 40.144 26.9053 39.92 26.1213 39.472C25.3373 39.008 24.7293 38.344 24.2973 37.48C23.8653 36.616 23.6493 35.6 23.6493 34.432V26.608H27.7293V33.88C27.7293 34.776 27.9613 35.472 28.4253 35.968C28.8893 36.464 29.5133 36.712 30.2973 36.712C31.0973 36.712 31.7293 36.464 32.1933 35.968C32.6573 35.472 32.8893 34.776 32.8893 33.88V26.608H36.9933ZM44.0451 28.84C44.5251 28.104 45.1251 27.528 45.8451 27.112C46.5651 26.68 47.3651 26.464 48.2451 26.464V30.808H47.1171C46.0931 30.808 45.3251 31.032 44.8131 31.48C44.3011 31.912 44.0451 32.68 44.0451 33.784V40H39.9411V26.608H44.0451V28.84ZM55.6548 40.192C54.4868 40.192 53.4468 39.992 52.5348 39.592C51.6228 39.192 50.9028 38.648 50.3748 37.96C49.8468 37.256 49.5508 36.472 49.4868 35.608H53.5428C53.5908 36.072 53.8068 36.448 54.1908 36.736C54.5748 37.024 55.0468 37.168 55.6068 37.168C56.1188 37.168 56.5108 37.072 56.7828 36.88C57.0708 36.672 57.2148 36.408 57.2148 36.088C57.2148 35.704 57.0148 35.424 56.6148 35.248C56.2148 35.056 55.5668 34.848 54.6708 34.624C53.7108 34.4 52.9108 34.168 52.2708 33.928C51.6308 33.672 51.0788 33.28 50.6148 32.752C50.1508 32.208 49.9188 31.48 49.9188 30.568C49.9188 29.8 50.1268 29.104 50.5428 28.48C50.9748 27.84 51.5988 27.336 52.4148 26.968C53.2468 26.6 54.2308 26.416 55.3668 26.416C57.0468 26.416 58.3668 26.832 59.3268 27.664C60.3028 28.496 60.8628 29.6 61.0068 30.976H57.2148C57.1508 30.512 56.9428 30.144 56.5908 29.872C56.2548 29.6 55.8068 29.464 55.2468 29.464C54.7668 29.464 54.3988 29.56 54.1428 29.752C53.8868 29.928 53.7588 30.176 53.7588 30.496C53.7588 30.88 53.9588 31.168 54.3588 31.36C54.7748 31.552 55.4148 31.744 56.2788 31.936C57.2708 32.192 58.0788 32.448 58.7028 32.704C59.3268 32.944 59.8708 33.344 60.3348 33.904C60.8148 34.448 61.0628 35.184 61.0788 36.112C61.0788 36.896 60.8548 37.6 60.4068 38.224C59.9748 38.832 59.3428 39.312 58.5108 39.664C57.6948 40.016 56.7428 40.192 55.6548 40.192ZM69.6856 40.192C68.3736 40.192 67.1896 39.912 66.1336 39.352C65.0936 38.792 64.2696 37.992 63.6616 36.952C63.0696 35.912 62.7736 34.696 62.7736 33.304C62.7736 31.928 63.0776 30.72 63.6856 29.68C64.2936 28.624 65.1256 27.816 66.1816 27.256C67.2376 26.696 68.4216 26.416 69.7336 26.416C71.0456 26.416 72.2296 26.696 73.2856 27.256C74.3416 27.816 75.1736 28.624 75.7816 29.68C76.3896 30.72 76.6936 31.928 76.6936 33.304C76.6936 34.68 76.3816 35.896 75.7576 36.952C75.1496 37.992 74.3096 38.792 73.2376 39.352C72.1816 39.912 70.9976 40.192 69.6856 40.192ZM69.6856 36.64C70.4696 36.64 71.1336 36.352 71.6776 35.776C72.2376 35.2 72.5176 34.376 72.5176 33.304C72.5176 32.232 72.2456 31.408 71.7016 30.832C71.1736 30.256 70.5176 29.968 69.7336 29.968C68.9336 29.968 68.2696 30.256 67.7416 30.832C67.2136 31.392 66.9496 32.216 66.9496 33.304C66.9496 34.376 67.2056 35.2 67.7176 35.776C68.2456 36.352 68.9016 36.64 69.6856 36.64Z" fill="black"/>
<path d="M93.592 35.832H98.968V39H89.488V22.152H93.592V35.832ZM102.99 24.216C102.27 24.216 101.678 24.008 101.214 23.592C100.766 23.16 100.542 22.632 100.542 22.008C100.542 21.368 100.766 20.84 101.214 20.424C101.678 19.992 102.27 19.776 102.99 19.776C103.694 19.776 104.27 19.992 104.718 20.424C105.182 20.84 105.414 21.368 105.414 22.008C105.414 22.632 105.182 23.16 104.718 23.592C104.27 24.008 103.694 24.216 102.99 24.216ZM105.03 25.608V39H100.926V25.608H105.03ZM112.108 27.504C112.492 26.88 113.044 26.376 113.764 25.992C114.484 25.608 115.308 25.416 116.236 25.416C117.34 25.416 118.34 25.696 119.236 26.256C120.132 26.816 120.836 27.616 121.348 28.656C121.876 29.696 122.14 30.904 122.14 32.28C122.14 33.656 121.876 34.872 121.348 35.928C120.836 36.968 120.132 37.776 119.236 38.352C118.34 38.912 117.34 39.192 116.236 39.192C115.292 39.192 114.468 39.008 113.764 38.64C113.06 38.256 112.508 37.752 112.108 37.128V39H108.004V21.24H112.108V27.504ZM117.964 32.28C117.964 31.256 117.676 30.456 117.1 29.88C116.54 29.288 115.844 28.992 115.012 28.992C114.196 28.992 113.5 29.288 112.924 29.88C112.364 30.472 112.084 31.28 112.084 32.304C112.084 33.328 112.364 34.136 112.924 34.728C113.5 35.32 114.196 35.616 115.012 35.616C115.828 35.616 116.524 35.32 117.1 34.728C117.676 34.12 117.964 33.304 117.964 32.28ZM128.397 27.84C128.877 27.104 129.477 26.528 130.197 26.112C130.917 25.68 131.717 25.464 132.597 25.464V29.808H131.469C130.445 29.808 129.677 30.032 129.165 30.48C128.653 30.912 128.397 31.68 128.397 32.784V39H124.293V25.608H128.397V27.84ZM133.742 32.28C133.742 30.904 133.998 29.696 134.51 28.656C135.038 27.616 135.75 26.816 136.646 26.256C137.542 25.696 138.542 25.416 139.646 25.416C140.59 25.416 141.414 25.608 142.118 25.992C142.838 26.376 143.39 26.88 143.774 27.504V25.608H147.878V39H143.774V37.104C143.374 37.728 142.814 38.232 142.094 38.616C141.39 39 140.566 39.192 139.622 39.192C138.534 39.192 137.542 38.912 136.646 38.352C135.75 37.776 135.038 36.968 134.51 35.928C133.998 34.872 133.742 33.656 133.742 32.28ZM143.774 32.304C143.774 31.28 143.486 30.472 142.91 29.88C142.35 29.288 141.662 28.992 140.846 28.992C140.03 28.992 139.334 29.288 138.758 29.88C138.198 30.456 137.918 31.256 137.918 32.28C137.918 33.304 138.198 34.12 138.758 34.728C139.334 35.32 140.03 35.616 140.846 35.616C141.662 35.616 142.35 35.32 142.91 34.728C143.486 34.136 143.774 33.328 143.774 32.304ZM156.295 39.192C155.127 39.192 154.087 38.992 153.175 38.592C152.263 38.192 151.543 37.648 151.015 36.96C150.487 36.256 150.191 35.472 150.127 34.608H154.183C154.231 35.072 154.447 35.448 154.831 35.736C155.215 36.024 155.687 36.168 156.247 36.168C156.759 36.168 157.151 36.072 157.423 35.88C157.711 35.672 157.855 35.408 157.855 35.088C157.855 34.704 157.655 34.424 157.255 34.248C156.855 34.056 156.207 33.848 155.311 33.624C154.351 33.4 153.551 33.168 152.911 32.928C152.271 32.672 151.719 32.28 151.255 31.752C150.791 31.208 150.559 30.48 150.559 29.568C150.559 28.8 150.767 28.104 151.183 27.48C151.615 26.84 152.239 26.336 153.055 25.968C153.887 25.6 154.871 25.416 156.007 25.416C157.687 25.416 159.007 25.832 159.967 26.664C160.943 27.496 161.503 28.6 161.647 29.976H157.855C157.791 29.512 157.583 29.144 157.231 28.872C156.895 28.6 156.447 28.464 155.887 28.464C155.407 28.464 155.039 28.56 154.783 28.752C154.527 28.928 154.399 29.176 154.399 29.496C154.399 29.88 154.599 30.168 154.999 30.36C155.415 30.552 156.055 30.744 156.919 30.936C157.911 31.192 158.719 31.448 159.343 31.704C159.967 31.944 160.511 32.344 160.975 32.904C161.455 33.448 161.703 34.184 161.719 35.112C161.719 35.896 161.495 36.6 161.047 37.224C160.615 37.832 159.983 38.312 159.151 38.664C158.335 39.016 157.383 39.192 156.295 39.192Z" fill="black"/>
<path d="M72.006 30.9736L74.5494 33.242L78.2076 29.1404L80.5719 31.249L76.9137 35.3507L79.672 37.8108L83.8094 33.1718L86.2632 35.3604L79.3941 43.0621L66.8205 31.8478L73.6897 24.1461L76.1435 26.3346L72.006 30.9736ZM88.1631 7.91836L100.737 19.1327L98.005 22.1955L90.4644 15.4701L95.4969 25.0075L93.2924 27.4792L83.2099 23.5678L90.7684 30.3092L88.0367 33.372L75.4631 22.1577L78.69 18.5396L90.5418 22.7749L84.9522 11.5185L88.1631 7.91836Z" fill="#8DB986"/>
</g>
<defs>
<filter id="filter0_d_2_13" x="0.792007" y="7.91837" width="164.927" height="43.1437" filterUnits="userSpaceOnUse" color-interpolation-filters="sRGB">
<feFlood flood-opacity="0" result="BackgroundImageFix"/>
<feColorMatrix in="SourceAlpha" type="matrix" values="0 0 0 0 0 0 0 0 0 0 0 0 0 0 0 0 0 0 127 0" result="hardAlpha"/>
<feOffset dy="4"/>
<feGaussianBlur stdDeviation="2"/>
<feComposite in2="hardAlpha" operator="out"/>
<feColorMatrix type="matrix" values="0 0 0 0 0 0 0 0 0 0 0 0 0 0 0 0 0 0 0.25 0"/>
<feBlend mode="normal" in2="BackgroundImageFix" result="effect1_dropShadow_2_13"/>
<feBlend mode="normal" in="SourceGraphic" in2="effect1_dropShadow_2_13" result="shape"/>
</filter>
</defs>
</svg>
