<svg width="23" height="24" viewBox="0 0 23 24" fill="none" xmlns="http://www.w3.org/2000/svg">
<path d="M12.65 14.4H14.95V10.8H18.4V8.4H14.95V4.8H12.65V8.4H9.2V10.8H12.65V14.4ZM6.9 19.2C6.2675 19.2 5.72604 18.965 5.27563 18.495C4.82521 18.025 4.6 17.46 4.6 16.8V2.4C4.6 1.74 4.82521 1.175 5.27563 0.705C5.72604 0.235 6.2675 0 6.9 0H20.7C21.3325 0 21.874 0.235 22.3244 0.705C22.7748 1.175 23 1.74 23 2.4V16.8C23 17.46 22.7748 18.025 22.3244 18.495C21.874 18.965 21.3325 19.2 20.7 19.2H6.9ZM6.9 16.8H20.7V2.4H6.9V16.8ZM2.3 24C1.6675 24 1.12604 23.765 0.675625 23.295C0.225208 22.825 0 22.26 0 21.6V4.8H2.3V21.6H18.4V24H2.3Z" fill="black"/>
</svg>
